<svg width="27" height="24" viewBox="0 0 27 24" fill="none" xmlns="http://www.w3.org/2000/svg">
<path d="M15.7338 2.26953V6.40007C15.7338 6.96012 15.7338 7.24015 15.8506 7.45406C15.9534 7.64222 16.1174 7.7952 16.3191 7.89108C16.5484 8.00007 16.8486 8.00007 17.4489 8.00007H21.8766M15.7338 17H9.30216M17.8777 13H9.30216M22.1655 9.98822V17.2C22.1655 18.8802 22.1655 19.7202 21.815 20.362C21.5067 20.9265 21.0147 21.3854 20.4096 21.673C19.7217 22 18.8212 22 17.0201 22H10.1597C8.35868 22 7.45816 22 6.77026 21.673C6.16516 21.3854 5.67321 20.9265 5.36489 20.362C5.01439 19.7202 5.01439 18.8802 5.01439 17.2V6.8C5.01439 5.11984 5.01439 4.27976 5.36489 3.63803C5.67321 3.07354 6.16516 2.6146 6.77026 2.32698C7.45816 2 8.35868 2 10.1597 2H13.6026C14.3891 2 14.7824 2 15.1525 2.08289C15.4806 2.15638 15.7943 2.27759 16.082 2.44208C16.4066 2.6276 16.6847 2.88703 17.2408 3.40589L20.6584 6.59411C21.2146 7.11297 21.4927 7.3724 21.6916 7.67515C21.8679 7.94356 21.9978 8.2362 22.0766 8.5423C22.1655 8.88757 22.1655 9.25445 22.1655 9.98822Z" stroke="#344054" stroke-width="2" stroke-linecap="round" stroke-linejoin="round"/>
</svg>
