<svg width="27" height="24" viewBox="0 0 27 24" fill="none" xmlns="http://www.w3.org/2000/svg">
<path d="M13.5899 14.5V8.5M10.3741 11.5H16.8058M22.1655 12C22.1655 16.9084 16.4263 20.4784 14.3381 21.6149C14.1008 21.744 13.9822 21.8086 13.8147 21.8421C13.6847 21.8681 13.4951 21.8681 13.3652 21.8421C13.1977 21.8086 13.079 21.744 12.8417 21.6149C10.7535 20.4784 5.01439 16.9084 5.01439 12V7.2176C5.01439 6.41809 5.01439 6.01833 5.15456 5.6747C5.27838 5.37114 5.47959 5.10028 5.7408 4.88553C6.03648 4.64244 6.43771 4.50208 7.24018 4.22135L12.9877 2.21067C13.2106 2.13271 13.322 2.09373 13.4366 2.07828C13.5383 2.06457 13.6416 2.06457 13.7432 2.07828C13.8579 2.09373 13.9693 2.13271 14.1921 2.21067L19.9397 4.22135C20.7421 4.50208 21.1434 4.64244 21.4391 4.88553C21.7003 5.10028 21.9015 5.37114 22.0253 5.6747C22.1655 6.01833 22.1655 6.41809 22.1655 7.2176V12Z" stroke="#344054" stroke-width="2" stroke-linecap="round" stroke-linejoin="round"/>
</svg>
