<svg width="27" height="24" viewBox="0 0 27 24" fill="none" xmlns="http://www.w3.org/2000/svg">
<path d="M21.0935 10L6.08633 10M21.0935 10L23.0918 13.1069C23.5396 13.8032 23.7636 14.1514 23.8798 14.5262C23.9829 14.8582 24.0236 15.2045 24.0003 15.5495C23.9739 15.9389 23.8363 16.324 23.561 17.0944L23.3382 17.7179C22.9165 18.8981 22.7056 19.4882 22.3145 19.9245C21.9692 20.3098 21.5257 20.608 21.0246 20.7918C20.4573 21 19.7905 21 18.4569 21L8.72293 21C7.38936 21 6.72257 21 6.15521 20.7918C5.65421 20.608 5.21068 20.3098 4.86532 19.9245C4.47422 19.4882 4.26336 18.8981 3.84165 17.7179L3.61886 17.0944C3.3436 16.324 3.20597 15.9389 3.1796 15.5495C3.15623 15.2044 3.19697 14.8582 3.30002 14.5261C3.41631 14.1514 3.64023 13.8032 4.08807 13.1069L6.08633 10M21.0935 10L21.5408 8.53955C21.7529 7.84717 21.8589 7.50097 21.7756 7.22708C21.7026 6.98715 21.5362 6.78132 21.309 6.64996C21.0495 6.5 20.6636 6.5 19.8917 6.5L7.28816 6.5C6.51626 6.5 6.13031 6.5 5.87089 6.64996C5.64364 6.78132 5.47721 6.98715 5.40425 7.22708C5.32096 7.50097 5.42699 7.84717 5.63904 8.53955L6.08633 10M13.5899 6.5H9.79985C9.24141 6.5 8.70584 6.28929 8.31096 5.91421C7.91609 5.53914 7.69425 5.03043 7.69425 4.5C7.69425 3.96957 7.91609 3.46086 8.31096 3.08579C8.70584 2.71071 9.24141 2.5 9.79985 2.5C12.7477 2.5 13.5899 6.5 13.5899 6.5ZM13.5899 6.5H17.38C17.9385 6.5 18.474 6.28929 18.8689 5.91421C19.2638 5.53914 19.4856 5.03043 19.4856 4.5C19.4856 3.96957 19.2638 3.46086 18.8689 3.08579C18.474 2.71071 17.9385 2.5 17.38 2.5C14.4322 2.5 13.5899 6.5 13.5899 6.5Z" stroke="#344054" stroke-width="2" stroke-linecap="round" stroke-linejoin="round"/>
</svg>
