<svg width="84" height="67" viewBox="0 0 84 67" fill="none" xmlns="http://www.w3.org/2000/svg">
<rect x="20.0511" y="4.48267" width="41.8848" height="55.0347" rx="6" fill="url(#paint0_linear_1_6947)"/>
<rect x="23.4603" y="7.89191" width="35.5534" height="23.3776" rx="4" fill="url(#paint1_linear_1_6947)"/>
<rect x="23.4603" y="38.0879" width="35.5534" height="5.35736" rx="1" fill="#FFE8DB"/>
<rect x="23.4603" y="46.3675" width="35.5534" height="2.43516" rx="1" fill="#FFE8DB"/>
<rect x="31.7399" y="51.7249" width="18.9943" height="1.94813" rx="0.974065" fill="#FFE8DB"/>
<rect x="33.244" width="41.8848" height="55.0347" rx="6" transform="rotate(15 33.244 0)" fill="url(#paint2_linear_1_6947)"/>
<rect x="35.6547" y="4.17542" width="35.5534" height="23.3776" rx="4" transform="rotate(15 35.6547 4.17542)" fill="url(#paint3_linear_1_6947)"/>
<rect x="27.8394" y="33.3425" width="35.5534" height="5.35736" rx="1" transform="rotate(15 27.8394 33.3425)" fill="#FFE8DB"/>
<rect x="25.6965" y="41.34" width="35.5534" height="2.43516" rx="1" transform="rotate(15 25.6965 41.34)" fill="#FFE8DB"/>
<rect x="32.3074" y="48.6577" width="18.9943" height="1.94813" rx="0.974065" transform="rotate(15 32.3074 48.6577)" fill="#FFE8DB"/>
<circle cx="72.6506" cy="15.1974" r="11.2017" fill="white"/>
<path fill-rule="evenodd" clip-rule="evenodd" d="M68.6374 9.95695C69.1108 9.48359 69.8783 9.48359 70.3516 9.95695L78.3781 17.9834C78.8515 18.4568 78.8515 19.2242 78.3781 19.6976C77.9047 20.171 77.1373 20.171 76.6639 19.6976L68.6374 11.6712C68.1641 11.1978 68.1641 10.4303 68.6374 9.95695Z" fill="#FF4646"/>
<path fill-rule="evenodd" clip-rule="evenodd" d="M78.3781 10.21C78.8514 10.6834 78.8514 11.4509 78.3781 11.9242L70.3516 19.9507C69.8783 20.4241 69.1108 20.4241 68.6374 19.9507C68.1641 19.4773 68.1641 18.7099 68.6374 18.2365L76.6639 10.21C77.1372 9.73668 77.9047 9.73668 78.3781 10.21Z" fill="#FF4646"/>
<defs>
<linearGradient id="paint0_linear_1_6947" x1="60.9619" y1="5.45673" x2="20.5382" y2="59.5173" gradientUnits="userSpaceOnUse">
<stop stop-color="#9AB0FF"/>
<stop offset="1" stop-color="#3551B6"/>
</linearGradient>
<linearGradient id="paint1_linear_1_6947" x1="60.9618" y1="7.89191" x2="23.9474" y2="31.2695" gradientUnits="userSpaceOnUse">
<stop stop-color="#AE92FF"/>
<stop offset="1" stop-color="#1D1396"/>
</linearGradient>
<linearGradient id="paint2_linear_1_6947" x1="74.1548" y1="0.974065" x2="33.7311" y2="55.0347" gradientUnits="userSpaceOnUse">
<stop stop-color="#FFECCF"/>
<stop offset="1" stop-color="#F17921"/>
</linearGradient>
<linearGradient id="paint3_linear_1_6947" x1="73.1562" y1="4.17541" x2="36.1417" y2="27.553" gradientUnits="userSpaceOnUse">
<stop stop-color="#FF9F92"/>
<stop offset="1" stop-color="#D64424"/>
</linearGradient>
</defs>
</svg>
